<svg width="126" height="126" viewBox="0 0 126 126" fill="none" xmlns="http://www.w3.org/2000/svg">
<path d="M98.8821 34.1897C98.8821 31.5375 97.8285 28.994 95.9532 27.1186L71.7635 2.92893C69.8881 1.05357 67.3446 0 64.6924 0H12.3008C6.77794 0 2.30078 4.47715 2.30078 10V114.483C2.30078 120.005 6.77793 124.483 12.3008 124.483H88.8821C94.405 124.483 98.8821 120.005 98.8821 114.483V34.1897Z" fill="#0E7BCB"/>
<path d="M23.7633 49.3638H77.4196C78.6043 49.3638 79.5658 48.4044 79.5658 47.2175C79.5658 46.0307 78.6043 45.0713 77.4196 45.0713H23.7633C22.5786 45.0713 21.6171 46.0307 21.6171 47.2175C21.6171 48.4044 22.5786 49.3638 23.7633 49.3638Z" fill="#83CAFD"/>
<path d="M23.7633 32.1938H45.2258C46.4106 32.1938 47.3721 31.2344 47.3721 30.0475C47.3721 28.8607 46.4106 27.9013 45.2258 27.9013H23.7633C22.5786 27.9013 21.6171 28.8607 21.6171 30.0475C21.6171 31.2344 22.5786 32.1938 23.7633 32.1938Z" fill="#83CAFD"/>
<path d="M77.4196 62.2413H23.7633C22.5786 62.2413 21.6171 63.2007 21.6171 64.3876C21.6171 65.5744 22.5786 66.5338 23.7633 66.5338H77.4196C78.6043 66.5338 79.5658 65.5744 79.5658 64.3876C79.5658 63.2007 78.6043 62.2413 77.4196 62.2413Z" fill="#83CAFD"/>
<path d="M77.4196 79.4113H23.7633C22.5786 79.4113 21.6171 80.3707 21.6171 81.5576C21.6171 82.7444 22.5786 83.7038 23.7633 83.7038H77.4196C78.6043 83.7038 79.5658 82.7444 79.5658 81.5576C79.5658 80.3707 78.6043 79.4113 77.4196 79.4113Z" fill="#83CAFD"/>
<path d="M77.4196 96.5813H23.7633C22.5786 96.5813 21.6171 97.5407 21.6171 98.7276C21.6171 99.9145 22.5786 100.874 23.7633 100.874H77.4196C78.6043 100.874 79.5658 99.9145 79.5658 98.7276C79.5658 97.5407 78.6043 96.5813 77.4196 96.5813Z" fill="#83CAFD"/>
<path d="M71 2V27H96L71 2Z" fill="#83CAFD"/>
<path d="M77.6965 105.626L77.6814 105.643L73.4125 121.287L83.3862 111.315L77.6965 105.626Z" fill="#EDDCC7"/>
<path d="M119.012 75.6897L116.335 73.0133C114.672 71.35 111.974 71.35 110.311 73.0133L102.623 80.6991L108.313 86.3888L119.012 75.6897Z" fill="#D75A4A"/>
<path d="M108.311 86.3889L102.622 80.6994L77.6966 105.625L83.3861 111.314L108.311 86.3889Z" fill="#F29C21"/>
<path d="M89.8206 117.784L89.8378 117.767L83.3862 111.315L73.4125 121.287L73.1271 122.336L89.8206 117.784Z" fill="#D6C4B1"/>
<path d="M114.764 92.8404L122.452 85.1525C124.116 83.4892 124.116 80.7914 122.452 79.128L119.014 75.6897L108.315 86.3888L114.764 92.8404Z" fill="#A34740"/>
<path d="M83.3854 111.317L89.8368 117.769L114.762 92.8433L108.311 86.392L83.3854 111.317Z" fill="#E18C25"/>
<path d="M72.6641 124C72.2382 124 71.8123 123.837 71.4879 123.513C70.8374 122.862 70.8374 121.81 71.4879 121.16L75.1597 117.488C75.8102 116.837 76.8616 116.837 77.5121 117.488C78.1626 118.138 78.1626 119.19 77.5121 119.841L73.8403 123.513C73.5159 123.837 73.09 124 72.6641 124Z" fill="#5E5E5E"/>
</svg>
